<svg id="Capa_1" enable-background="new 0 0 507.979 507.979" height="512" viewBox="0 0 507.979 507.979" width="512" style="fill:#eb9a12;" xmlns="http://www.w3.org/2000/svg"><g><path d="m463.402 36.474c-3.027-4.619-9.227-5.911-13.846-2.883-4.619 3.027-5.91 9.227-2.883 13.846 26.356 40.215 32.952 89.7 18.547 134.903-2.968-45.565-23.032-87.734-56.726-119.049-4.045-3.759-10.372-3.53-14.133.518-3.76 4.045-3.528 10.373.518 14.133 30.642 28.479 48.593 67.049 50.546 108.605.326 6.933-1.787 13.569-5.73 18.953-3.243-10.018-9.094-19.127-17.097-26.283-8.93-7.986-23.789-10.971-36.665-2.549-8.649-14.968-24.823-25.067-43.318-25.067h-14.591s-45.258-57.005-51.98-63.235c-5.123-4.749-10.494-3.636-14.12-.601-2.472 2.069-5.662 8.762-.609 14.13 10.622 11.286 41.053 49.706 41.053 49.706h-9.75l-101.307-75.985c-9.967-7.476-20.203-14.474-30.692-20.989-5.658-17.852-4.754-34.653-4.754-34.653 13.569 7.28 26.806 15.504 39.479 24.24 4.303 2.966 10.432 2.353 13.92-2.479 2.694-3.732 2.576-10.425-2.479-13.931-13.3-9.221-27.24-17.819-41.48-25.46-2.899-1.57-13.706-5.68-23.159 3.07-7.58 7.016-6.341 16.32-6.341 17.47 0 6.115.467 12.188 1.34 18.199-30.547-16.331-63.01-28.79-97.058-37.208-6.772-1.675-13.792.245-18.776 5.136-5.003 4.907-7.063 11.917-5.512 18.751 6.095 26.847 21.076 51.368 42.185 69.047 33.625 28.161 71.156 51.106 111.553 68.199l76.765 32.481c-2.423 7.074-3.686 14.548-3.686 22.062v20.403c0 5.514-4.496 9.675-10 10-9.301.548-14.781-3.752-31.658-11.951s-37.427-5.223-51.13 7.411c-54.192 49.965-71.2 129.104-42.32 196.925 5.217 12.252 13.463 23.456 23.849 32.4l35.765 30.802c1.835 1.581 5.237 3.123 8.983 2.116 3.149-.846 5.731-3.094 6.89-6.142 14.93-39.289 49.139-129.216 49.139-129.217 4.783-12.577 8.1-25.79 9.896-39.196l17.108 27.713-9.891 68.114-37.039 59.244c-2.928 4.683-1.434 10.742 3.179 13.78 5.311 3.499 11.747.547 13.78-3.179l38.153-61.026c.735-1.176 1.218-2.491 1.417-3.863l10.716-73.793c.337-2.324-.154-4.692-1.388-6.69l-27.159-43.993c14.368-.866 28.661-2.777 42.751-5.721l13.824 31-6.569 70.563-20.562 67.918c-1.6 5.286 1.353 10.988 6.674 12.469 6.351 1.767 11.161-2.354 12.469-6.674l20.854-68.884c.194-.643.323-1.303.386-1.971l6.906-74.175c.159-1.709-.125-3.432-.824-5l-13.403-30.056 25.762-6.878 14.731 30.768 18.261 67.629-27.566 62.647c-2.225 5.055 0 11.124 5.126 13.181 6.473 2.598 11.532-1.381 13.181-5.126l28.987-65.876c.919-2.089 1.096-4.431.501-6.634l-19.42-71.919c-.159-.589-.371-1.162-.635-1.712l-13.505-28.207 16.318-4.357c3.714 8.503 11.208 15.162 21.073 16.965 17.005 3.108 28.65-5.817 33.7-16.869 7.168-15.688 11.317-32.295 12.397-49.48 16.15-3.152 29.882-14.054 36.401-29.547 23.042-54.763 17.314-117.191-15.322-166.989zm-300.018 223.645c7.704-7.104 19.292-8.762 28.834-4.125l18.254 8.867c7.802 3.79 12.843 11.844 12.843 20.518v3.973c-24.784-2.877-50.307-15.444-65.314-24.011 1.747-1.776 3.538-3.521 5.383-5.222zm5.982 220.962-24.958-21.495c-8.078-6.957-14.476-15.631-18.5-25.082-1.569-3.684-2.974-7.409-4.239-11.16 20.917 9.19 41.677 15.908 62.025 20.053-5.078 13.351-10.078 26.503-14.328 37.684zm21.543-56.657c-24.525-4.652-49.823-13.376-75.384-26.011-1.582-9.93-2.189-19.934-1.835-29.872 22.964 11.744 53.289 24.283 86.879 30.484-2.967 7.799-6.258 16.452-9.66 25.399zm16.898-44.428c-36.212-6.095-68.836-20.449-91.87-32.866 1.403-7.978 3.433-15.84 6.062-23.512 24.482 13.804 57.659 28.648 94.039 34.153-.805 2.497-4.76 13.099-8.231 22.225zm13.149-41.717c-35.25-4.953-67.719-19.79-91.204-33.258 4.201-8.478 9.2-16.609 14.968-24.274 16.206 9.534 47.723 25.733 78.877 28.711.013 9.64-.879 19.314-2.641 28.821zm-150.13-256.802c-17.775-14.887-30.391-35.536-35.54-58.185 52.393 12.953 100.85 35.941 144.024 68.324l148.13 111.104c-4.654 2.542-10.373 2.996-15.506.823l-134.605-56.954c-38.567-16.319-74.4-38.226-106.503-65.112zm301.79 180.897-22.57 6.026-7.483-15.63c-2.385-4.982-8.358-7.087-13.338-4.701-4.981 2.385-7.086 8.356-4.701 13.338l5.861 12.242-25.223 6.734-7.509-16.839c-2.249-5.043-8.161-7.311-13.206-5.06-5.044 2.249-7.31 8.161-5.06 13.206l5.919 13.273c-13.848 2.667-27.89 4.256-41.99 4.781v-4.365c0-5.691-1.164-11.236-3.293-16.351 12.972-3.306 22.594-15.086 22.594-29.073v-20.403c0-4.838.745-9.648 2.17-14.241l39.357 16.653c4.719 1.996 9.669 2.948 14.57 2.948 12.896 0 25.44-6.596 32.446-18.113 2.676-4.398 1.575-10.108-2.543-13.197l-29.332-22h23.332c16.542 0 30 13.458 30 30v60.772zm39.117 11.808c-3.119 6.827-9.403 6.042-11.256 5.64-1.844-.401-7.861-2.292-7.861-9.767v-68.449c0-7.812 9.29-13.812 16.65-7.48 8.629 7.422 13.35 18.459 13.35 29.83 0 17.524-3.662 34.423-10.883 50.226zm-185.241-210.467c0-5.523 4.477-10 10-10s10 4.477 10 10-4.477 10-10 10-10-4.477-10-10z"/></g></svg>