<?xml version="1.0"?>
<svg xmlns="http://www.w3.org/2000/svg" height="512px" viewBox="-117 0 512 512" width="512px"><path d="m242.40625 287.726562c12.246094-12.113281 33.128906-40.121093 35.378906-91.589843.304688-6.9375-2.34375-13.738281-7.261718-18.664063-4.953126-4.953125-11.789063-7.625-18.828126-7.324218-22.28125.953124-63.910156 6.757812-92.390624 34.921874-1.664063 1.644532-3.488282 3.59375-5.402344 5.84375v-53.152343c22.980468-1.457031 61.605468-8.109375 88.503906-34.710938 12.246094-12.113281 33.128906-40.117187 35.378906-91.589843.304688-6.9375-2.34375-13.738282-7.265625-18.664063-4.949219-4.953125-11.8125-7.621094-18.824219-7.324219-22.28125.953125-63.910156 6.757813-92.390624 34.921875-1.664063 1.644531-3.488282 3.59375-5.402344 5.84375v-31.238281c0-8.285156-6.714844-15-15-15-8.28125 0-15 6.714844-15 15v31.238281c-1.910156-2.25-3.738282-4.199219-5.402344-5.84375-28.476562-28.164062-70.105469-33.96875-92.386719-34.921875-7.035156-.292968-13.875 2.371094-18.824219 7.324219-4.921874 4.925781-7.570312 11.726563-7.2656245 18.667969 2.2539065 51.46875 23.1328125 79.472656 35.3789065 91.585937 26.898437 26.601563 65.523437 33.253907 88.5 34.714844v53.148437c-1.910156-2.25-3.738282-4.195312-5.402344-5.84375-28.472656-28.164062-70.105469-33.96875-92.386719-34.921874-7.015625-.292969-13.875 2.371093-18.828125 7.328124-4.917968 4.921876-7.566406 11.722657-7.2617185 18.664063 2.2539065 51.46875 23.1328125 79.476563 35.3789065 91.585937 26.898437 26.601563 65.523437 33.253907 88.5 34.714844v53.152344c-1.910156-2.25-3.738282-4.199219-5.402344-5.84375-28.476562-28.167969-70.105469-33.972656-92.386719-34.925781-7.007812-.296875-13.875 2.371093-18.828125 7.328125-4.917968 4.921875-7.566406 11.726562-7.2617185 18.664062 2.2539065 51.472656 23.1328125 79.476563 35.3789065 91.585938 26.898437 26.605468 65.523437 33.257812 88.5 34.714844v9.882812c0 8.285156 6.71875 15 15 15 8.285156 0 15-6.714844 15-15v-9.886719c22.980468-1.460937 61.605468-8.109375 88.503906-34.714843 12.246094-12.113282 33.128906-40.117188 35.378906-91.585938.304688-6.9375-2.34375-13.738281-7.261718-18.664062-4.953126-4.957032-11.832032-7.621094-18.828126-7.328126-22.28125.953126-63.910156 6.757813-92.390624 34.925782-1.664063 1.644531-3.488282 3.59375-5.402344 5.84375v-53.152344c22.980468-1.457031 61.605468-8.109375 88.503906-34.710938zm0 0" fill="#000"/></svg>
