<?xml version="1.0" encoding="UTF-8"?>
<svg xmlns="http://www.w3.org/2000/svg" xmlns:xlink="http://www.w3.org/1999/xlink" xmlns:svgjs="http://svgjs.com/svgjs" version="1.1" width="512" height="512" x="0" y="0" viewBox="0 0 511.624 511.624" style="enable-background:new 0 0 512 512" xml:space="preserve" class="">
  <g>
    <g xmlns="http://www.w3.org/2000/svg">
      <path d="m169.155 392.706h36.902c8.284 0 15-6.716 15-15s-6.716-15-15-15h-36.902c-8.284 0-15 6.716-15 15s6.716 15 15 15z" fill="#6c757d" data-original="#000000" style=""/>
      <path d="m362.394 387.706c-8.284 0-15 6.716-15 15v20.413h-237.04v-90.413h29.459c8.284 0 15-6.716 15-15s-6.716-15-15-15h-44.459c-8.284 0-15 6.716-15 15v120.413c0 8.284 6.716 15 15 15h267.04c8.284 0 15-6.716 15-15v-35.413c0-8.284-6.716-15-15-15z" fill="#6c757d" data-original="#000000" style=""/>
      <path d="m490.528 68.696c-2.808-21.369-13.865-40.244-31.135-53.146-14.368-10.734-31.43-15.811-48.332-15.536-.041-.002-.082-.014-.123-.014h-267.84c-3.973 0-7.783 1.576-10.595 4.382l-107.694 107.455c-2.82 2.813-4.405 6.634-4.405 10.618v374.169c0 8.284 6.716 15 15 15h386.887c8.284 0 15-6.716 15-15v-341.047c3.82-2.215 7.696-4.377 11.656-6.457 9.823-5.159 18.314-12.226 25.236-21.001 13.351-16.925 19.155-38.028 16.345-59.423zm-362.43-17.54v56.299h-56.424zm-77.694 430.468v-344.169h92.694c8.284 0 15-6.716 15-15v-92.455h192.14c-6.899 8.743-11.784 18.616-14.531 29.409-10.266 40.331-27.575 76.126-51.446 106.389l-11.516 14.599-62.148-49.287c-3.123-2.478-7.104-3.614-11.06-3.146-3.958.462-7.57 2.479-10.038 5.608l-37.028 46.941c-5.121 6.492-4.023 15.904 2.456 21.043l7.92 6.281-27.762 35.195c-5.121 6.492-4.022 15.904 2.457 21.043l158.314 125.553c2.664 2.113 5.953 3.247 9.32 3.247.578 0 1.159-.033 1.739-.102 3.958-.462 7.569-2.48 10.038-5.608l27.714-35.135 7.858 6.232c3.121 2.476 7.099 3.61 11.06 3.146 3.958-.462 7.569-2.48 10.038-5.608l33.667-42.681v168.505zm327.427-179.599-18.447 23.388-7.858-6.232c-3.122-2.477-7.102-3.614-11.059-3.146-3.958.462-7.569 2.479-10.038 5.608l-27.714 35.135-134.809-106.912 27.762-35.195c5.121-6.492 4.022-15.904-2.456-21.043l-7.92-6.28 18.448-23.388zm29.46-14.925-61.306-48.62 11.393-14.443c14.268-18.088 30.978-34.324 49.913-48.593zm43.337-177.56c-4.299 5.45-9.558 9.83-15.632 13.021-40.542 21.295-74.582 49.186-101.174 82.896l-11.344 14.382-26.227-20.8 11.565-14.661c26.49-33.584 45.655-73.14 56.964-117.568 5.623-22.088 26.123-37.222 48.752-36.81 23.134.422 43.089 17.996 46.958 40.689 2.338 13.716-1.24 27.92-9.862 38.851z" fill="#6c757d" data-original="#000000" style=""/>
    </g>
  </g>
</svg>
