<?xml version="1.0"?>
<svg xmlns="http://www.w3.org/2000/svg" height="512px" viewBox="0 -5 512 512" width="512px"><path d="m211.691406 339.691406h29.539063v54.15625h-29.539063zm0 0" fill="#eb9a12"/><path d="m113.230469 113.230469c0 2.714843 2.207031 4.921875 4.921875 4.921875h39.386718c2.714844 0 4.921876-2.207032 4.921876-4.921875v-112.875c-1.609376-.230469-3.25-.355469-4.921876-.355469h-39.386718c-1.671875 0-3.3125.125-4.921875.355469zm0 0" fill="#eb9a12"/><path d="m228.921875 285.539062h-4.921875c-6.785156 0-12.308594 5.519532-12.308594 12.308594 0 6.785156 5.523438 12.304688 12.308594 12.304688h17.230469v-12.304688c0-6.789062-5.519531-12.308594-12.308594-12.308594zm0 0" fill="#eb9a12"/><path d="m349.539062 113.230469c0 2.714843 2.207032 4.921875 4.921876 4.921875h39.386718c2.714844 0 4.921875-2.207032 4.921875-4.921875v-112.875c-1.609375-.230469-3.25-.355469-4.921875-.355469h-39.386718c-1.671876 0-3.3125.125-4.921876.355469zm0 0" fill="#eb9a12"/><path d="m512 177.230469v-73.847657c0-24.429687-19.875-44.304687-44.308594-44.304687h-39.382812v54.152344c0 19.003906-15.460938 34.460937-34.460938 34.460937h-39.386718c-19 0-34.460938-15.457031-34.460938-34.460937v-54.152344h-128v54.152344c0 19.003906-15.460938 34.460937-34.460938 34.460937h-39.386718c-19 0-34.460938-15.457031-34.460938-34.460937v-54.152344h-39.382812c-24.433594 0-44.308594 19.875-44.308594 44.304687v73.847657zm0 0" fill="#eb9a12"/><path d="m270.769531 339.691406h29.539063v54.15625h-29.539063zm0 0" fill="#eb9a12"/><path d="m0 206.769531v251.078125c0 24.429688 19.875 44.304688 44.308594 44.304688h423.382812c24.433594 0 44.308594-19.875 44.308594-44.304688v-251.078125zm339.691406 132.921875h-9.84375v68.925782c0 8.15625-6.613281 14.765624-14.769531 14.765624h-118.15625c-8.15625 0-14.769531-6.609374-14.769531-14.765624v-68.925782h-9.84375c-8.15625 0-14.769532-6.613281-14.769532-14.769531s6.613282-14.769531 14.769532-14.769531h11.695312c-1.199218-3.890625-1.851562-8.023438-1.851562-12.304688 0-23.074218 18.773437-41.847656 41.847656-41.847656h4.921875c10.320313 0 19.773437 3.761719 27.078125 9.976562 7.304688-6.214843 16.757812-9.976562 27.078125-9.976562h4.921875c23.074219 0 41.847656 18.773438 41.847656 41.847656 0 4.28125-.648437 8.414063-1.851562 12.304688h11.695312c8.15625 0 14.769532 6.613281 14.769532 14.769531s-6.613282 14.769531-14.769532 14.769531zm0 0" fill="#eb9a12"/><path d="m288 285.539062h-4.921875c-6.789063 0-12.308594 5.519532-12.308594 12.308594v12.304688h17.230469c6.785156 0 12.308594-5.519532 12.308594-12.304688 0-6.789062-5.523438-12.308594-12.308594-12.308594zm0 0" fill="#eb9a12"/></svg>
