<?xml version="1.0"?>
<svg xmlns="http://www.w3.org/2000/svg" xmlns:xlink="http://www.w3.org/1999/xlink" xmlns:svgjs="http://svgjs.com/svgjs" version="1.1" width="512" height="512" x="0" y="0" viewBox="0 0 512 511" style="enable-background:new 0 0 512 512" xml:space="preserve"><g><path xmlns="http://www.w3.org/2000/svg" d="m492 355.5h-30c-5.523438 0-10 4.476562-10 10s4.476562 10 10 10h30v15c0 5.515625-4.484375 10-10 10h-452c-5.515625 0-10-4.484375-10-10v-15h362c5.523438 0 10-4.476562 10-10s-4.476562-10-10-10h-362c-11.027344 0-20 8.972656-20 20v15c0 16.542969 13.457031 30 30 30h452c16.542969 0 30-13.457031 30-30v-15c0-11.027344-8.972656-20-20-20zm0 0" fill="#eb9a12" data-original="#000000" style=""/><path xmlns="http://www.w3.org/2000/svg" d="m147.078125 199.160156 103.921875 60c1.546875.894532 3.273438 1.339844 5 1.339844s3.453125-.445312 5-1.339844l103.921875-60c3.09375-1.785156 5-5.085937 5-8.660156v-120c0-3.574219-1.90625-6.875-5-8.660156l-103.921875-60c-3.09375-1.7851565-6.90625-1.7851565-10 0l-12.402344 7.160156c-4.785156 2.761719-6.421875 8.878906-3.660156 13.660156 2.761719 4.785156 8.878906 6.421875 13.660156 3.660156l7.402344-4.273437 83.921875 48.453125-83.921875 48.453125-83.921875-48.453125 7.238281-4.179688c4.78125-2.761718 6.421875-8.875 3.660156-13.660156-2.765624-4.78125-8.878906-6.421875-13.660156-3.660156l-22.238281 12.839844c-3.09375 1.785156-5 5.085937-5 8.660156v120c0 3.570312 1.90625 6.875 5 8.660156zm15-111.339844 83.921875 48.453126v96.90625l-83.921875-48.453126zm103.921875 145.359376v-96.90625l83.921875-48.453126v96.90625zm0 0" fill="#eb9a12" data-original="#000000" style=""/><path xmlns="http://www.w3.org/2000/svg" d="m160.996094 299.519531c-4.78125 2.757813-6.421875 8.875-3.660156 13.660157l10 17.320312c1.855468 3.207031 5.214843 5 8.671874 5 1.695313 0 3.414063-.433594 4.988282-1.339844 4.785156-2.761718 6.421875-8.878906 3.660156-13.660156l-10-17.320312c-2.757812-4.785157-8.875-6.421876-13.660156-3.660157zm0 0" fill="#eb9a12" data-original="#000000" style=""/><path xmlns="http://www.w3.org/2000/svg" d="m137.335938 278.535156c1.855468 3.210938 5.214843 5.003906 8.671874 5.003906 1.695313 0 3.414063-.433593 4.988282-1.34375 4.785156-2.757812 6.421875-8.875 3.660156-13.660156l-10-17.320312c-2.757812-4.78125-8.875-6.421875-13.660156-3.660156-4.78125 2.761718-6.421875 8.878906-3.660156 13.660156zm0 0" fill="#eb9a12" data-original="#000000" style=""/><path xmlns="http://www.w3.org/2000/svg" d="m107.335938 226.574219c1.855468 3.210937 5.214843 5.003906 8.671874 5.003906 1.695313 0 3.414063-.433594 4.988282-1.34375 4.785156-2.757813 6.421875-8.875 3.660156-13.660156l-10-17.320313c-2.757812-4.78125-8.875-6.421875-13.660156-3.660156-4.78125 2.761719-6.421875 8.878906-3.660156 13.660156zm0 0" fill="#eb9a12" data-original="#000000" style=""/><path xmlns="http://www.w3.org/2000/svg" d="m77.335938 174.613281c1.855468 3.207031 5.214843 5.003907 8.671874 5.003907 1.695313 0 3.414063-.433594 4.988282-1.34375 4.785156-2.761719 6.421875-8.875 3.660156-13.660157l-10-17.320312c-2.757812-4.78125-8.875-6.421875-13.660156-3.660157-4.78125 2.761719-6.421875 8.878907-3.660156 13.660157zm0 0" fill="#eb9a12" data-original="#000000" style=""/><path xmlns="http://www.w3.org/2000/svg" d="m47.339844 122.652344c1.851562 3.207031 5.210937 5 8.667968 5 1.695313 0 3.414063-.429688 4.988282-1.339844 4.785156-2.761719 6.421875-8.875 3.660156-13.660156l-10-17.320313c-2.761719-4.785156-8.875-6.421875-13.660156-3.660156-4.78125 2.761719-6.421875 8.878906-3.65625 13.660156zm0 0" fill="#eb9a12" data-original="#000000" style=""/><path xmlns="http://www.w3.org/2000/svg" d="m337.34375 303.179688-10 17.320312c-2.761719 4.78125-1.125 10.898438 3.660156 13.660156 1.574219.910156 3.292969 1.339844 4.988282 1.339844 3.457031 0 6.816406-1.792969 8.671874-5l10-17.320312c2.761719-4.785157 1.121094-10.902344-3.660156-13.660157-4.785156-2.765625-10.902344-1.125-13.660156 3.660157zm0 0" fill="#eb9a12" data-original="#000000" style=""/><path xmlns="http://www.w3.org/2000/svg" d="m367.34375 251.214844-10 17.320312c-2.761719 4.785156-1.125 10.902344 3.660156 13.660156 1.574219.910157 3.292969 1.34375 4.988282 1.34375 3.457031 0 6.816406-1.792968 8.671874-5.003906l10-17.320312c2.761719-4.78125 1.121094-10.898438-3.660156-13.660156-4.785156-2.757813-10.902344-1.121094-13.660156 3.660156zm0 0" fill="#eb9a12" data-original="#000000" style=""/><path xmlns="http://www.w3.org/2000/svg" d="m391.003906 230.234375c1.574219.910156 3.292969 1.34375 4.988282 1.34375 3.457031 0 6.816406-1.792969 8.671874-5.003906l10-17.320313c2.761719-4.78125 1.121094-10.898437-3.660156-13.660156-4.785156-2.761719-10.898437-1.121094-13.660156 3.660156l-10 17.320313c-2.761719 4.785156-1.125 10.902343 3.660156 13.660156zm0 0" fill="#eb9a12" data-original="#000000" style=""/><path xmlns="http://www.w3.org/2000/svg" d="m421.003906 178.273438c1.574219.910156 3.292969 1.34375 4.988282 1.34375 3.457031 0 6.816406-1.792969 8.671874-5.003907l10-17.320312c2.761719-4.78125 1.121094-10.898438-3.660156-13.660157-4.785156-2.761718-10.898437-1.121093-13.660156 3.660157l-10 17.320312c-2.761719 4.785157-1.125 10.898438 3.660156 13.660157zm0 0" fill="#eb9a12" data-original="#000000" style=""/><path xmlns="http://www.w3.org/2000/svg" d="m451.003906 126.3125c1.574219.910156 3.292969 1.339844 4.988282 1.339844 3.457031 0 6.816406-1.792969 8.667968-5l10-17.320313c2.765625-4.78125 1.125-10.898437-3.65625-13.660156-4.785156-2.761719-10.898437-1.121094-13.660156 3.660156l-10 17.320313c-2.761719 4.785156-1.125 10.898437 3.660156 13.660156zm0 0" fill="#eb9a12" data-original="#000000" style=""/><path xmlns="http://www.w3.org/2000/svg" d="m246 305.496094v20c0 5.523437 4.476562 10 10 10s10-4.476563 10-10v-20c0-5.519532-4.476562-10-10-10s-10 4.480468-10 10zm0 0" fill="#eb9a12" data-original="#000000" style=""/><path xmlns="http://www.w3.org/2000/svg" d="m421.996094 355.5c-5.523438 0-9.996094 4.476562-9.996094 10s4.480469 10 10.003906 10c5.523438 0 10-4.476562 10-10s-4.476562-10-10-10zm0 0" fill="#eb9a12" data-original="#000000" style=""/><path xmlns="http://www.w3.org/2000/svg" d="m208.960938 47.664062c1.601562 0 3.226562-.382812 4.734374-1.195312l.003907-.003906c4.863281-2.617188 6.679687-8.679688 4.0625-13.542969-2.617188-4.863281-8.683594-6.679687-13.546875-4.0625-4.863282 2.617187-6.683594 8.683594-4.066406 13.546875 1.808593 3.351562 5.253906 5.257812 8.8125 5.257812zm0 0" fill="#eb9a12" data-original="#000000" style=""/></g></svg>
