<svg id="Capa_1" data-name="Capa 1" xmlns="http://www.w3.org/2000/svg" viewBox="0 0 742.5 841.76"><defs><style>.cls-1,.cls-2{stroke:#000;stroke-miterlimit:10;stroke-width:3px;}.cls-2{fill:#fff;}</style></defs><title>Celular</title><rect class="cls-1" x="141.63" y="1.5" width="593.49" height="769.78" rx="44.07" ry="44.07"/><path class="cls-1" d="M918.57,248.54l8.91,0c1.6,0,2.9,3.77,2.91,8.43l.25,86c0,4.66-1.28,8.44-2.87,8.45l-8.91,0c-1.6,0-2.9-3.77-2.92-8.43l-.24-86C915.69,252.32,917,248.54,918.57,248.54Z" transform="translate(-783 -125.74)"/><path class="cls-1" d="M1512.05,243.94l8.91,0c1.6,0,2.9,2.09,2.91,4.69l.13,47.89c0,2.6-1.28,4.7-2.88,4.71l-8.91,0c-1.59,0-2.89-2.09-2.9-4.69l-.13-47.89C1509.17,246.05,1510.46,244,1512.05,243.94Z" transform="translate(-783 -125.74)"/><path class="cls-2" d="M955.48,182.68v653c0,23.32,17.78,42.22,39.71,42.22h455.32c21.93,0,39.7-18.9,39.7-42.22v-653c0-23.32-17.77-42.22-39.7-42.22H995.19C973.26,140.46,955.48,159.36,955.48,182.68Z" transform="translate(-783 -125.74)"/><path class="cls-1" d="M1067.13,143.59h0c0,6,17.23,10.84,38.48,10.84h246.23c21.25,0,38.48-4.85,38.48-10.84h0c0-6-17.23-10.85-38.48-10.85H1105.61C1084.36,132.74,1067.13,137.6,1067.13,143.59Z" transform="translate(-783 -125.74)"/><path class="cls-1" d="M796.43,448.09h0A42.36,42.36,0,0,1,825.24,437h191.24a42.36,42.36,0,0,1,28.8,11.09h0a36.53,36.53,0,0,1,11.93,26.76v453.3a36.53,36.53,0,0,1-11.93,26.76h0a42.36,42.36,0,0,1-28.8,11.09H825.24a42.36,42.36,0,0,1-28.81-11.09h0a36.53,36.53,0,0,1-11.93-26.76V474.85A36.53,36.53,0,0,1,796.43,448.09Z" transform="translate(-783 -125.74)"/><path class="cls-1" d="M1053.89,523.52h6.64c1.2,0,2.16,2.74,2.16,6.11v62.26c0,3.37-1,6.11-2.16,6.11h-6.64c-1.19,0-2.15-2.74-2.15-6.11V529.63C1051.74,526.26,1052.7,523.52,1053.89,523.52Z" transform="translate(-783 -125.74)"/><path class="cls-1" d="M1053.89,614.43h6.64c1.2,0,2.16,1.57,2.16,3.5v35.71c0,1.93-1,3.5-2.16,3.5h-6.64c-1.19,0-2.15-1.57-2.15-3.5V617.93C1051.74,616,1052.7,614.43,1053.89,614.43Z" transform="translate(-783 -125.74)"/><path class="cls-2" d="M799.83,935.17V477.26c0-13.4,10.06-24.26,22.46-24.26h198.23c12.4,0,22.46,10.86,22.46,24.26V935.17c0,13.4-10.06,24.26-22.46,24.26H822.29C809.89,959.43,799.83,948.57,799.83,935.17Z" transform="translate(-783 -125.74)"/><path class="cls-1" d="M873,453.4h0c0,4,5.5,7.25,12.28,7.25h78.6c6.79,0,12.29-3.24,12.29-7.25h0c0-4-5.5-7.25-12.29-7.25h-78.6C878.5,446.15,873,449.4,873,453.4Z" transform="translate(-783 -125.74)"/></svg>