<svg id="Capa_1" data-name="Capa 1" xmlns="http://www.w3.org/2000/svg" viewBox="0 0 1585.59 467.87"><defs><style>.cls-1{fill:#fff;}</style></defs><title>sena_sennova-white</title><path class="cls-1" d="M1107.12,228.82c-.08,9.5-.28,19-.15,28.48,0,3.3-1,4.27-4.26,4.22-12.32-.17-24.66-.21-37,0-3.4.07-5-1.27-6.47-4.1-18.39-36.28-38.72-71.6-54.6-109.14a8.11,8.11,0,0,0-2.67-3.94c-1.71,3.92-.76,7.76-.54,11.36.86,14,.52,28,.58,41.95.09,19.32-.1,38.65.12,58,.05,4.39-.83,6.36-5.67,5.9-4.62-.45-9.32-.1-14-.1-7.15,0-7.15,0-7.15-6.92V171.05c0-15.16.1-30.33-.06-45.49,0-4,1-5.56,5.32-5.45,11.82.29,23.66.25,35.49,0,3.59-.07,5.29,1.27,6.83,4.35,18.05,36.1,37.47,71.51,54.22,108.25.53,1.14.39,3.61,2.33,3.17s1.61-2.64,1.53-4.27c-1.78-35.46-.28-70.94-.87-106.4-.07-3.92,1-5.33,5-5.1,6,.34,12,.2,18,0,2.82-.08,3.87.87,3.78,3.71-.16,4.94,0,9.88,0,15.86,3-2.75,5.08-5.09,7.57-6.77a28,28,0,0,1,22.89-4c1.77.42,3.6.62,5.4.91l12.13,5.39,6.31,4.9c2.53,3,5,6.15,8.59,8.05a3.85,3.85,0,0,0,2,2.64c2.33,1.26,1.17,3.47,1.18,5.3,0,1-1,1.09-1.86,1a3.31,3.31,0,0,1-3.41-2.78,6,6,0,0,0-4.13-3.94c-1.7-3.91-5-5.87-8.76-7.37a19.87,19.87,0,0,0-8.51-4.42c-4.15-3.1-8.87-3.74-13.86-3.23-12.34,1.43-20.13,11.37-20.21,25.81-.43,6.1-.84,12.2,1.12,18.15,2,13.15,7.51,24.84,14.68,35.87l-1,1.95-13.2-15.31a37.25,37.25,0,0,0-5.37-11.64c-1.76-2.85-1.29.1-1.3.58-.15,6.85-.23,13.71-.32,20.57-9.06-12.86-9-26.7-3.43-41.86-5.67,4.6-9.85,14.76-10.48,22.89C1091.81,206.9,1097.58,218.57,1107.12,228.82Z"/><path class="cls-1" d="M924,236.65c.38-6.94-.39-13.56-.43-20.18-.15-30,0-60-.15-90,0-4.84,1.1-6.94,6.4-6.39a87.94,87.94,0,0,0,15.48,0c4.13-.29,5,1.27,4.93,5.1-.14,31.82-.08,63.65-.08,95.48,0,12-.12,24,.08,36,0,3.48-.52,5-4.53,4.87-12.32-.29-24.66-.09-37-.13-1.89,0-3.66.37-4.94-2.14-15.34-29.83-31.6-59.2-46-89.5-4.05-8.51-7.7-17.22-11.67-26.15-2.2,1.74-1.32,3.68-1.28,5.27.89,36.15.09,72.31.45,108.46,0,3.42-1.15,4.26-4.32,4.14-5.66-.21-11.34-.31-17,0-4,.24-5-1.07-4.94-5,.15-36.16.09-72.32.09-108.48,0-7.83.17-15.67-.08-23.5-.12-3.6,1.17-4.5,4.59-4.45,12.16.17,24.33.13,36.49,0,2.84,0,4.48.87,5.82,3.52,18.6,36.57,38,72.73,55.15,110C921.57,234.9,921.76,236.29,924,236.65Z"/><path class="cls-1" d="M200.91,228.75c9.35,15.4,18.3,30.11,27.22,44.85,24.66,40.72,49.23,81.5,74,122.12,2.46,4,1.56,5.41-2.18,7.15-6.3,2.94-12.55,6.06-18.53,9.59-3.28,1.94-4.54,1.31-6.39-1.81q-29.16-49.23-58.63-98.28c-1.79-3-3.54-6-5.37-9-5.19-8.39-13.88-8.44-19,0Q173.18,335,154.45,366.71c-8.73,14.68-17.54,29.31-26.08,44.09-1.71,3-3,3.53-6,1.87a206,206,0,0,0-18.67-9.23c-4-1.67-3.72-3.21-1.79-6.47q32.58-55,64.89-110.15Z"/><path class="cls-1" d="M217.77,197h93.87c28.5,0,57,.08,85.49-.09,3.91,0,5.15,1,4.95,4.93a189.07,189.07,0,0,0,0,20.48c.23,4.19-1.36,4.83-5.08,4.82-36.16-.13-72.33,0-108.49-.13-4.38,0-7.83,1.19-10.07,5.05-2.38,4.11-1.24,7.89,1,11.71q22.66,39.17,45.23,78.4c7.37,12.78,14.68,25.59,22.15,38.32,1.3,2.21,1.35,3.56-.7,5.39-6,5.33-11.89,10.73-17.45,16.47-2.77,2.86-3.55,1.51-5-1q-38.82-67.72-77.74-135.4C236.7,229.85,227.45,213.8,217.77,197Z"/><path class="cls-1" d="M184.05,197c-9,15.71-17.51,30.66-26.09,45.57q-39.63,69-79.21,138c-2.26,4-3.52,4-6.53.93-5.11-5.24-10.48-10.26-16-15-2.61-2.25-2.34-3.87-.78-6.56Q88.92,302,122.27,244c2.52-4.36,3.63-8.55.5-13-2.34-3.28-5.67-4.1-9.61-4.09-36,.09-72,0-108,.15-4.14,0-5.38-.93-5.17-5.14.38-7.31.2-14.66.06-22,0-2.41.72-3.08,3.1-3.08C63.16,197,123.13,197,184.05,197Z"/><path class="cls-1" d="M627.36,119.15c11.17-.13,21.59.35,31.83,3,13.58,3.46,19.48,10,21.63,24,2.3,15,2.3,15-12.52,15h-1c-3.5-.05-7.41.88-10.38-.4-3.62-1.57-1.45-6.24-2.48-9.46C652.11,144,650,142.06,642.29,141a95.37,95.37,0,0,0-32.24.88c-7.56,1.58-10.83,5.05-11.7,12.71A41.34,41.34,0,0,0,599.48,170a8.11,8.11,0,0,0,6.53,6.13,161.75,161.75,0,0,0,24.22,2.9c10.93.69,21.79,1.57,32.58,3.81,12.59,2.61,19.52,10,21.18,22.44,1.61,12.1,1.35,24.16-1.82,36-2.48,9.3-8.28,15.59-17.74,17.61a171,171,0,0,1-71.23.57c-12-2.5-18.15-10.14-20.84-21.41-1.4-5.88-1.29-11.87-1.33-17.86,0-2.44.9-3.14,3.22-3.1,6.33.12,12.66.11,19,0,2.28,0,3.06.69,3.37,3.07.49,3.77.44,7.57,1.33,11.35,1.1,4.66,3.72,7.48,8.2,8.25,13.83,2.35,27.7,2.94,41.59.34,5.54-1,8.79-4.27,9.93-9.79a45.91,45.91,0,0,0,.34-17.86c-1.32-7-5.83-9.66-16-10.37-14.42-1-28.91-1.26-43.18-4a89.78,89.78,0,0,1-9.18-2.12c-7.63-2.26-13.27-6.73-15.58-14.69-3.54-12.23-3.67-24.53-1.27-37,2.84-14.68,12.82-21,26.42-23.21A145.22,145.22,0,0,1,627.36,119.15Z"/><path class="cls-1" d="M1523,261.43c-8.71,0-17,0-25.32,0-2.34,0-2.52-1.76-3-3.29-2.22-6.6-4.57-13.17-6.57-19.83-.9-3-2.21-4.25-5.54-4.22-17.83.16-35.65.13-53.48,0-2.78,0-4.17.82-5,3.54-2,6.69-4.3,13.27-6.34,19.93-.83,2.7-2,4.09-5.24,4-6.48-.29-13-.27-19.48,0-3.93.14-4.36-1-3.17-4.56,10.58-31.45,21-63,31.45-94.44,4.24-12.75,8.62-25.45,12.7-38.25,1-3,2.32-4.2,5.57-4.14q15.73.3,31.49,0c3.23-.06,4.64,1.07,5.65,4.07q14.7,43.9,29.64,87.71,7.5,22.16,15,44.3C1521.9,257.77,1522.36,259.34,1523,261.43Zm-66.71-118.06-1.2.13q-11.08,33.81-22.17,67.62c-1.27,3.82,1.36,3.2,3.44,3.21,12.8,0,25.61-.13,38.41.09,4.26.07,5-.91,3.62-5-6.47-18.86-12.64-37.81-18.92-56.73C1458.45,149.55,1457.37,146.47,1456.31,143.37Z"/><path class="cls-1" d="M701.17,190.77c0-21.83.08-43.65-.07-65.47,0-3.78.81-5.21,5-5.19q43.47.27,87,0c3.66,0,5.17,1,5,4.74-.2,4.49-.19,9,0,13.49.15,3.54-1.33,4.53-4.74,4.51-20-.12-40,.08-60-.16-4.39-.06-5.74,1-5.56,5.52.37,9,.25,18,0,27-.07,3.32,1.06,4.19,4.27,4.17,18.65-.13,37.31.06,56-.16,4.7-.05,6.32,1.19,6.2,6.14-.33,13.52-.1,13.53-13.58,13.53-15.83,0-31.66.19-47.47-.12-4.65-.09-5.53,1.49-5.4,5.69q.43,14.47,0,29c-.14,4.37.85,5.93,5.64,5.86,20-.3,40,0,60-.22,4.17,0,5.7,1.28,5.49,5.37-.23,4.32-.14,8.66,0,13,.08,2.95-1,4.08-4.09,4.07q-44.73-.15-89.45,0c-3.91,0-4.18-1.71-4.17-4.81C701.22,234.74,701.17,212.75,701.17,190.77Z"/><path class="cls-1" d="M1260.19,132.47c0-3.05-1.12-5.87-2.17-8.63-1.18-3.1-.08-3.73,2.81-3.67,6.83.13,13.67.11,20.5,0,2.39,0,3.37.82,4.12,3.18,11.46,35.69,24.3,70.93,34.4,107.06.66,2.36.16,6.44,3,6.5,2.26.05,2-4,2.63-6.28,10.23-35.92,22.66-71.14,34.06-106.68.93-2.9,2.25-3.92,5.28-3.81,6.32.23,12.66.25,19,0,3.84-.15,4.91.45,3.54,4.63-11.21,34.2-22.19,68.49-33.24,102.75-3.21,9.95-6.52,19.85-9.56,29.85-.92,3-2.22,4.23-5.53,4.16-10.83-.22-21.66-.24-32.49,0-3.53.09-4.92-1.22-5.92-4.4-8.44-26.9-17-53.76-25.55-80.64a17.84,17.84,0,0,0-3-6.19c0-2.73-.07-5.46-.11-8.2,6.07,6.08,5.89,14.49,8,22.78,3.33-12.74-1-25.65-11.78-36.6C1267.23,142.14,1263.31,137.5,1260.19,132.47Z"/><path class="cls-1" d="M1011.71,299.11h494.38a31.37,31.37,0,0,1,4,0c1.41.18,4.05-.75,3.54,1.87-.37,1.9.08,5.1-3.41,5.25-1.33.06-2.66,0-4,0H514.46c-1.17,0-2.33,0-3.5,0-2,0-2.6-1.23-2.54-2.92s-.16-3.89,2.41-4.19a39.5,39.5,0,0,1,4.49-.07Z"/><path class="cls-1" d="M202,109.18a42.54,42.54,0,0,1-43-42.87c0-24.38,18.81-43.37,43-43.33,23.64,0,43.33,19.51,43,43.14C244.67,92.9,222.61,110,202,109.18Z"/><path class="cls-1" d="M444.14,233.65q0-114.21.05-228.42c0-1.67-1.14-4.36.92-4.89,2.63-.69,5.59-.15,8.4,0,.25,0,.59,1.09.64,1.69.1,1.33,0,2.66,0,4V460.88c0,6.1-2.85,8.13-8.68,6.39-1.34-.4-1.33-1.23-1.36-2.2,0-1.33,0-2.67,0-4Z"/><path class="cls-1" d="M259.14,161.82c0-10.46.23-21-.11-31.58-.14-4.46.94-6.13,5.62-5.71a122.72,122.72,0,0,0,15,0c2.66-.1,3.81.48,3.79,3.5q-.21,25.23,0,50.45c0,3-1.1,3.56-3.78,3.51-8.66-.14-17.32-.16-26,0a7,7,0,0,1-5.93-2.8c-10.2-11.83-20.5-23.56-31.6-36.28v27.64c0,11.38,0,11.46-11.24,11.33-4.28-.05-10,1.91-12.42-.91-2.1-2.4-.72-7.93-.74-12.08,0-13.32.11-26.64-.1-40,0-3.52,1-4.55,4.47-4.44,8,.25,16,.2,24,0a8,8,0,0,1,6.83,3.11c9.69,11,19.54,21.83,29.36,32.7C256.87,161,257.27,162.18,259.14,161.82Z"/><path class="cls-1" d="M61.19,123.91c7.6-.07,16.4.1,24.8,3.25,5.36,2,9.6,5.1,10.62,11.35.34,2.16-.27,2.6-2.2,2.59-6.33-.06-12.66,0-19,0A2.67,2.67,0,0,1,73,140c-4.07-5-18.18-7.09-23.84-3.78-1,.6-2,1.24-2,2.62,0,1.86,1.32,2.65,2.67,3.24,5.36,2.38,11.15,3,16.85,4,8.13,1.43,16.38,2.36,23.95,6,4.73,2.28,8.21,5.52,8.76,11.14a12.19,12.19,0,0,1-5.52,12c-5.59,3.93-12,5.51-18.57,6.39-14.25,1.92-28.51,2-42.54-1.6-7-1.84-12.06-6-13.4-13.73-.4-2.32-.08-3.32,2.57-3.23,5.16.17,10.33,0,15.49.06,3.14,0,6.87-1.33,7.51,4.08.25,2.11,3,3,5.16,3.41a44.74,44.74,0,0,0,17.82.13c2.13-.43,4.91-1.13,5.12-4,.24-3.07-2.73-3.79-4.73-4.26-7.23-1.7-14.57-2.93-21.87-4.37a84.18,84.18,0,0,1-17.1-4.77c-5.38-2.31-8.79-6.23-9-12s3.31-9.87,8.5-12.39C38.73,124.09,49.33,123.85,61.19,123.91Z"/><path class="cls-1" d="M285.43,182c13.27-19.16,25.95-37.4,38.54-55.7,1.19-1.73,2.7-1.66,4.35-1.66,7.33,0,14.66,0,22,0,1.9,0,3.51.16,4.72,2q17.7,27.09,35.49,54.13c.14.21,0,.59,0,1.26-8.39,0-16.83-.05-25.26,0-3.2,0-3.68-2.67-4.44-4.58-2-5-5.18-6.7-10.68-6.37-9.46.56-19,.3-28.48.07-3.23-.08-5.54.63-6.62,3.75-2.12,6.11-6.31,8-12.61,7.23C297.22,181.51,291.87,182,285.43,182Zm52.5-43.93-12.74,20.62h24.94C346,151.7,342.17,145.21,337.93,138.06Z"/><path class="cls-1" d="M145.34,182c-10.34,0-20.67-.09-31,.06-2.8,0-3.74-.76-3.72-3.64q.16-25,0-50c0-3.19,1.12-3.86,4-3.84,20,.11,40,.14,60,0,3.48,0,5,.94,4.38,4.45a5,5,0,0,0,0,1.5c.81,4.63-.71,6.32-5.76,6.12-11-.43-22,.12-33-.25-4.52-.15-4.11,2.18-4.22,5.15s.08,4.79,4.08,4.67c10.32-.33,20.66,0,31-.19,3.41-.08,5,.72,4.4,4.33a13.68,13.68,0,0,0,0,4c.46,3.16-.88,3.88-3.89,3.83-10.5-.19-21,.06-31.5-.16-3.3-.06-4.52.9-4,4.14a12,12,0,0,1,0,3.49c-.47,3.25.75,4.27,4.08,4.22,11.83-.2,23.67.08,35.49-.17,3.68-.07,5.32.81,4.64,4.63a7.77,7.77,0,0,0,0,2.5c.64,4-.59,5.47-5,5.31C165.35,181.73,155.34,182,145.34,182Z"/><path class="cls-1" d="M1239,140.9c-5.71-11.39-14.61-19.45-26-24.92-10.09-6.06-21.19-8.56-32.79-9.31-2.21-.88-4.53-.7-6.83-.62-19.45-.6-36.36,6.15-51.81,18.46,2.59-5.46,10.12-11.5,18.24-15.67,29.36-15.06,58.22-12.6,86.8,2.18,7.18,5.54,14.05,11.39,19.32,18.92,2.91,4.16,4.49,9.15,8.14,12.84-1.36,3.21,1,5.49,2,8.1.54,2.93,1.15,5.85,1.61,8.8,4.68,30.24-18.06,56.94-48.76,44.88a7.66,7.66,0,0,0-4-2.3c-4.3-2.35-6.55-8.15-13-8.46-.11-.79-.45-2.57-.55-4.36s-1.23-4.66,2.14-4.16c1.61.24,6.27-2.72,4.82,3-.13.52.7,1.45,1.28,2,3.37,2.95,6.76,5.89,11.23,7.12,1.65,1.61,3.7,1.92,5.88,1.85,10.82,2.12,20.59-2.58,26.2-12.66,6.91-12.43,5.1-24.91.13-37.4C1241.89,146.33,1241.42,143.13,1239,140.9Z"/><path class="cls-1" d="M1257.2,244.09c-14.59,20.67-35,31.67-59.63,34.94-26.82,3.56-51.14-2.94-72-20.53-3.62-3.06-9.42-4.8-9.25-11.21,0-1.11-.68-2.57.87-2.94s4.11-1.23,4.57.29c1.76,5.89,7.16,7.26,11.49,9.46,18.65,9.5,38.26,15.54,59.53,13.8,18.24-1.5,34.7-7.5,48.4-20A86.93,86.93,0,0,0,1257.2,244.09Z"/><path class="cls-1" d="M1107.12,228.82c-9.54-10.25-15.31-21.92-14.2-36.37.63-8.13,4.81-18.29,10.48-22.89-5.55,15.16-5.63,29,3.43,41.86,2.4,5.68,6.75,9.81,11.32,13.63,20.32,17,44.11,22.21,69.9,19.81,6.39-.6,12.8-1.93,18.4-5.54l7.24,3.2c-6.93,6.49-15.7,9.16-24.62,10.81-29.84,5.51-56.24-1.71-78.75-22.34C1109.36,230.11,1108.63,228.88,1107.12,228.82Z"/><path class="cls-1" d="M1239,140.9c2.44,2.23,2.91,5.43,4.08,8.28l-5.39.48a9.21,9.21,0,0,0-4.87.57,21.65,21.65,0,0,0-8.89,1.69,34.28,34.28,0,0,0-9.85,2.58c-16.11,4.6-31.08,11.31-43.25,23.25-9.84,9.65-18,20.36-21.58,33.94a24.33,24.33,0,0,0-1.71,8.08,19.48,19.48,0,0,0-.28,12.19c.33,1.13,2.91,1.6.89,3.4-.86.78-1.68,1.9-3,1-1.55-1.13-4.26-2-4-4,.78-6.22-.75-12.33-.31-18.49q1.22-5.28,2.42-10.55a90.35,90.35,0,0,1,29.87-41.43c8.39-6.52,18.28-10,27.7-14.52l14.31-4.16a38.75,38.75,0,0,0,10.23-1.9l7.65-.56Z"/><path class="cls-1" d="M1213.69,242.52l-7.24-3.2-15.32-10.22c-.28-2.46-1.92-3.61-4.08-4.28-.1-1.8-1.37-3-2.36-4.26a69.88,69.88,0,0,1-10-17.11c-1.21-3.14-2.47-5.33-6.23-3.25-.73-1.81.16-3,.6-4.14,4.68-12.25,1.55-10.69,13-5.19,2.55,1.22,3.9,2.34.29,3.95-1.82.81-1.12,2-.48,3.25,4.91,9.69,10.7,18.69,19.38,25.51,1,1.38,2.12,2.54,4,2.6,3.41,3.4,7.67,5.35,12.06,7.07a11.52,11.52,0,0,0,6.53,2.46c2.65,1,5.21,2.38,8.2,1.71,3.53,2.19,7.21,2.15,11,.78,3.23,1.75,6.07-.14,9-.93,5.45-1.25,10.33-3.54,14.09-7.83,7.07-5.81,9.41-11.5,11.27-27.36a35.24,35.24,0,0,1-15.7,39c-1.55,1-3,2-4.56,3a86.93,86.93,0,0,1-16,3.76c-3.37-1-6.73-.44-10.1,0-2.49-2.9-6.21-1.41-9.18-2.56Z"/><path class="cls-1" d="M1243.07,238.2c-3.78,1.37-7.46,1.41-11-.78,22.57-24.56,33.68-52.51,25.45-86.16,6.32,1.59,11.54,4.66,14.39,10.85,0,2.74.07,5.47.11,8.2-1.4,4.72-.56,9.56-.78,14.35L1265,206.14C1259.12,217.8,1252.65,229.06,1243.07,238.2Z"/><path class="cls-1" d="M1233,140.75l-7.65.56c-22.16-17.64-46.06-15-70.49-6l-12.13-5.39c7.8-6.4,17.32-8.73,26.8-10.85,19-4.24,37-2.09,53.12,9.5C1227.05,131.67,1231.43,135.11,1233,140.75Z"/><path class="cls-1" d="M1180.2,106.67c11.6.75,22.7,3.25,32.79,9.31-11.74-1.41-23.46-2.73-35.29-1-10.52,1.56-21,3.19-30.41,8.6-1.82,1-4.06.33-4.31-.9a4.9,4.9,0,0,1,3.17-5.47c8.69-2.64,16.78-7.13,25.91-8.41.43-.06.82-.5,1.23-.76A11.88,11.88,0,0,0,1180.2,106.67Z"/><path class="cls-1" d="M1254.06,142.78c-3.65-3.69-5.23-8.68-8.14-12.84-5.27-7.53-12.14-13.38-19.32-18.92,11.75,2.44,21.05,9,29.37,17.31,1.4,1.39,2.81,2.76,4.22,4.14,3.12,5,7,9.67,7.94,15.82C1263.61,146,1259.08,143.76,1254.06,142.78Z"/><path class="cls-1" d="M1265,206.14l6.24-21.48c2.16,9.4.81,18.72-.91,28-1.06,5.67-2.76,11.21-4.16,16.82-3.76,4.29-8.64,6.58-14.08,7.82C1258.15,227.61,1263.16,217.53,1265,206.14Z"/><path class="cls-1" d="M1221.92,245.3c3,1.15,6.69-.34,9.18,2.56-11.94,9-25.79,12.54-40.29,14.17a107.21,107.21,0,0,1-21.8.48C1188,260.06,1206.67,257.79,1221.92,245.3Z"/><path class="cls-1" d="M1572.21,306.29c-3.14,0-6.3.12-9.44,0-1.26-.06-3.64.94-3.51-1.3.12-2.05-.06-5.45,2.94-5.61,7.1-.38,14.23-.29,21.35-.1,2.72.07,1.86,2.6,2,4.27s-.34,2.85-2.41,2.8C1579.5,306.23,1575.86,306.29,1572.21,306.29Z"/><path class="cls-1" d="M1544.51,306.28c-1.59,0-2.92-.3-2.26-1.58,1-1.88-.15-5.07,3.19-5.49,1.26-.16,2.17.89,1.64,1.77C1546.05,302.74,1547.47,306,1544.51,306.28Z"/><path class="cls-1" d="M1528.62,299.28c1.7.15,2,1.32,1.51,2.13-1,1.66.1,4.67-3.09,4.87-1.78.11-1.66-.69-1.24-2.11C1526.38,302.2,1526.12,299.83,1528.62,299.28Z"/><path class="cls-1" d="M1180.2,106.67a11.88,11.88,0,0,1-6.91,1.41c0-.68,0-1.35.08-2C1175.67,106,1178,105.79,1180.2,106.67Z"/><path class="cls-1" d="M1163.56,150.46c-9.61,4.89-17.4,11.76-22.18,21.52-5.24,10.7-4.45,21.24,1.89,31.34q-1.21,5.28-2.42,10.55c-11.49-9.25-16.23-27.26-11.38-41.15,4.61-13.23,13.3-22.82,25.33-29.63C1158.53,144.59,1161.86,146.55,1163.56,150.46Z"/><path class="cls-1" d="M1200.84,147.37c-10.43-2.71-20.79-2.76-31,.85-3.6-1.9-6.06-5-8.59-8.05,8-3,16-5.4,24.63-5.36,10.61,0,20.79,1.26,29.32,8.4Z"/><path class="cls-1" d="M1146.29,138.67c-15.92,9.58-27.23,22.9-33,40.73-2-6-1.55-12.05-1.12-18.16a91,91,0,0,1,20.21-25.8C1137.42,134.93,1142.14,135.57,1146.29,138.67Z"/><path class="cls-1" d="M1113.82,201.91l2.13,8.49c-4.25-6.13-7.59-12.53-7.5-20.13A37.25,37.25,0,0,1,1113.82,201.91Z"/><path class="cls-1" d="M1128,215.27l7.62,7.91a16.91,16.91,0,0,1-8.62-6Z"/><path class="cls-1" d="M1254.06,142.78c5,1,9.55,3.24,14.07,5.51,10.79,11,15.11,23.86,11.78,36.6-2.09-8.29-1.91-16.7-8-22.78-2.85-6.19-8.07-9.26-14.39-10.86l-1.44-.37C1255.07,148.27,1252.7,146,1254.06,142.78Z"/><path class="cls-1" d="M1223.91,151.92c8.19,14.46,7.14,33.92-7.18,47.32-2.18.07-4.23-.24-5.88-1.85,2.07-3.15,4.55-6.11,6.13-9.49,5.42-11.61,5.47-22.92-2.92-33.4A34.28,34.28,0,0,1,1223.91,151.92Z"/><path class="cls-1" d="M1209,204.56c-2.24,1.64-4.47,3.29-6.72,4.91a4.52,4.52,0,0,1-4.26.33c-.86-.27-1.06-1.12-1-2,.07-2.22,1.77-1.68,3.09-2.19,1.78-.69,3.26-2.18,4.87-3.32A7.66,7.66,0,0,1,1209,204.56Z"/><path class="cls-1" d="M1149.23,211.69c11,8.86,24,12.19,37.82,13.13,2.16.67,3.8,1.82,4.08,4.28-15.59,1.8-30.22-.89-43.61-9.33A24.33,24.33,0,0,1,1149.23,211.69Z"/><path class="cls-1" d="M1237.67,149.66c1.14,4.54,5.07,8.78,1.4,13.86-.73,1-.85,2.83-2.69,1.9-1.44-.73-3.81-2.57-3.21-3.25,3.72-4.28-.81-8-.37-11.94A9.21,9.21,0,0,1,1237.67,149.66Z"/><path class="cls-1" d="M1217.35,233.25c3.43-3.33,6.87-6.64,10.27-10a14.6,14.6,0,0,0,2.59-3c.78-1.4.16-3.85,3-3.51.8.09,1.93-.17,1.85,1-.17,2.16,1,4.36-1.1,6.46-3.57,3.63-6.74,7.66-10.08,11.52A11.52,11.52,0,0,1,1217.35,233.25Z"/><path class="cls-1" d="M1201.32,223.58a151.26,151.26,0,0,0,17.9-5.36c-4,4-9,5.85-13.93,8C1203.44,226.12,1202.31,225,1201.32,223.58Z"/></svg>